<mxfile host="Electron" agent="Mozilla/5.0 (Windows NT 10.0; Win64; x64) AppleWebKit/537.36 (KHTML, like Gecko) draw.io/26.0.4 Chrome/128.0.6613.186 Electron/32.2.5 Safari/537.36" version="26.0.4" pages="4">
  <diagram id="uU-5BxDW6odArLGbbiNo" name="구상">
    <mxGraphModel dx="1996" dy="1505" grid="1" gridSize="10" guides="1" tooltips="1" connect="1" arrows="1" fold="1" page="1" pageScale="1" pageWidth="827" pageHeight="1169" math="0" shadow="0">
      <root>
        <mxCell id="0" />
        <mxCell id="1" parent="0" />
        <mxCell id="17PoNLbxZREcqxHqiDvW-1" value="" style="edgeStyle=orthogonalEdgeStyle;rounded=0;orthogonalLoop=1;jettySize=auto;html=1;" edge="1" parent="1" source="17PoNLbxZREcqxHqiDvW-2" target="17PoNLbxZREcqxHqiDvW-4">
          <mxGeometry relative="1" as="geometry" />
        </mxCell>
        <mxCell id="17PoNLbxZREcqxHqiDvW-2" value="자격증 인강 사이트&lt;div&gt;도서 서비스&lt;/div&gt;&lt;div&gt;수강신청 시스템&lt;/div&gt;&lt;div&gt;&lt;br&gt;&lt;/div&gt;&lt;div&gt;&lt;br&gt;&lt;/div&gt;" style="text;html=1;align=left;verticalAlign=middle;resizable=0;points=[];autosize=1;strokeColor=none;fillColor=none;fontSize=20;fontStyle=1" vertex="1" parent="1">
          <mxGeometry x="90" y="50" width="190" height="130" as="geometry" />
        </mxCell>
        <mxCell id="17PoNLbxZREcqxHqiDvW-3" value="&lt;div&gt;기업평가 시스템 (블라인드 이직용 ) : 사람인같은 거랑 연계?&lt;/div&gt;&lt;div&gt;&amp;nbsp;- 재직&lt;/div&gt;&lt;div&gt;&amp;nbsp;- 신입&lt;/div&gt;&lt;div&gt;&amp;nbsp;- 회사&amp;nbsp;&lt;/div&gt;&lt;div&gt;&amp;nbsp;- 퇴직자&lt;/div&gt;&lt;div&gt;&lt;br&gt;&lt;/div&gt;" style="text;html=1;align=left;verticalAlign=middle;resizable=0;points=[];autosize=1;strokeColor=none;fillColor=none;fontStyle=1;fontSize=20;" vertex="1" parent="1">
          <mxGeometry x="300" y="50" width="560" height="160" as="geometry" />
        </mxCell>
        <mxCell id="17PoNLbxZREcqxHqiDvW-4" value="&lt;div style=&quot;font-size: 20px; font-weight: 700; text-align: left;&quot;&gt;&lt;span style=&quot;background-color: transparent; color: light-dark(rgb(0, 0, 0), rgb(255, 255, 255));&quot;&gt;예약 ( 배 예약, 포인트들 소개 ..) &amp;lt;&amp;nbsp;&lt;/span&gt;&lt;span style=&quot;background-color: transparent; color: light-dark(rgb(0, 0, 0), rgb(255, 255, 255));&quot;&gt;숙박, 여행 예약 : 민박 (유저가 등록, 갔다온 곳 소개 느낌?)&lt;/span&gt;&lt;/div&gt;&lt;div&gt;&lt;span style=&quot;background-color: transparent; color: light-dark(rgb(0, 0, 0), rgb(255, 255, 255));&quot;&gt;&lt;br&gt;&lt;/span&gt;&lt;/div&gt;" style="text;html=1;align=center;verticalAlign=middle;resizable=0;points=[];autosize=1;strokeColor=none;fillColor=none;" vertex="1" parent="1">
          <mxGeometry x="40" y="190" width="850" height="50" as="geometry" />
        </mxCell>
      </root>
    </mxGraphModel>
  </diagram>
  <diagram name="매칭" id="VY4bB2xwrEwU8oi3JUYf">
    <mxGraphModel dx="2196" dy="1656" grid="1" gridSize="10" guides="0" tooltips="1" connect="1" arrows="1" fold="1" page="1" pageScale="1" pageWidth="827" pageHeight="1169" math="0" shadow="0">
      <root>
        <mxCell id="0" />
        <mxCell id="1" parent="0" />
        <mxCell id="XFpZ7dTew_JIVLUXs7wM-1" value="&lt;span style=&quot;font-size: 20px; font-weight: 700; text-align: left;&quot;&gt;매칭 (구장, 인원 모음, 파티 매칭, 심판 연결 ...) - 여러 운동으로 확장가능, 참고할만한 사이트ㅇ&lt;/span&gt;" style="text;html=1;align=center;verticalAlign=middle;resizable=0;points=[];autosize=1;strokeColor=none;fillColor=none;" vertex="1" parent="1">
          <mxGeometry x="720" y="988" width="860" height="40" as="geometry" />
        </mxCell>
        <mxCell id="XFpZ7dTew_JIVLUXs7wM-2" value="회원" style="text;html=1;align=center;verticalAlign=middle;resizable=0;points=[];autosize=1;strokeColor=none;fillColor=none;fontSize=19;fontStyle=1" vertex="1" parent="1">
          <mxGeometry x="50" y="87" width="60" height="40" as="geometry" />
        </mxCell>
        <mxCell id="XFpZ7dTew_JIVLUXs7wM-3" value="비회원" style="text;html=1;align=center;verticalAlign=middle;resizable=0;points=[];autosize=1;strokeColor=none;fillColor=none;fontSize=19;fontStyle=1" vertex="1" parent="1">
          <mxGeometry x="570" y="87" width="80" height="40" as="geometry" />
        </mxCell>
        <mxCell id="XFpZ7dTew_JIVLUXs7wM-4" value="관리자" style="text;html=1;align=center;verticalAlign=middle;resizable=0;points=[];autosize=1;strokeColor=none;fillColor=none;fontSize=19;fontStyle=1" vertex="1" parent="1">
          <mxGeometry x="1090" y="87" width="80" height="40" as="geometry" />
        </mxCell>
        <mxCell id="XFpZ7dTew_JIVLUXs7wM-5" value="" style="rounded=0;whiteSpace=wrap;html=1;" vertex="1" parent="1">
          <mxGeometry x="50" y="127" width="490" height="891" as="geometry" />
        </mxCell>
        <mxCell id="XFpZ7dTew_JIVLUXs7wM-6" value="" style="rounded=0;whiteSpace=wrap;html=1;" vertex="1" parent="1">
          <mxGeometry x="570" y="127" width="490" height="291" as="geometry" />
        </mxCell>
        <mxCell id="XFpZ7dTew_JIVLUXs7wM-7" value="" style="rounded=0;whiteSpace=wrap;html=1;" vertex="1" parent="1">
          <mxGeometry x="1090" y="127" width="490" height="771" as="geometry" />
        </mxCell>
        <mxCell id="XFpZ7dTew_JIVLUXs7wM-8" value="회원정보" style="text;html=1;align=center;verticalAlign=middle;resizable=0;points=[];autosize=1;strokeColor=none;fillColor=none;fontSize=19;fontStyle=1" vertex="1" parent="1">
          <mxGeometry x="600" y="585" width="100" height="40" as="geometry" />
        </mxCell>
        <mxCell id="XFpZ7dTew_JIVLUXs7wM-9" value="운동 / 여행&amp;nbsp; / 게임 / 기타 == 취미" style="text;html=1;align=center;verticalAlign=middle;resizable=0;points=[];autosize=1;strokeColor=none;fillColor=none;fontSize=19;fontStyle=1" vertex="1" parent="1">
          <mxGeometry x="720" y="585" width="300" height="40" as="geometry" />
        </mxCell>
        <mxCell id="XFpZ7dTew_JIVLUXs7wM-10" value="인증 (로그인, 로그아웃, 회원가입) -- 기본&lt;div&gt;공지사항 -- 게시판 기능도 기본적으로 있음&lt;/div&gt;" style="text;html=1;align=left;verticalAlign=middle;resizable=0;points=[];autosize=1;strokeColor=none;fillColor=none;fontSize=17;fontStyle=1" vertex="1" parent="1">
          <mxGeometry x="570" y="438" width="350" height="50" as="geometry" />
        </mxCell>
        <mxCell id="XFpZ7dTew_JIVLUXs7wM-11" value="매칭 등록, 매칭 삭제, 매칭 수정, 매칭 조회, 매칭 신청&lt;div&gt;정보 수정, 탈퇴&lt;/div&gt;&lt;div&gt;친구 등록, 삭제, 수정, 조회&lt;/div&gt;&lt;div&gt;채팅&lt;/div&gt;&lt;div&gt;위치 (장소 정보) 지정&lt;/div&gt;&lt;div&gt;게시판&lt;/div&gt;&lt;div&gt;검색&lt;/div&gt;&lt;div&gt;참여했던 매칭 조회&lt;/div&gt;&lt;div&gt;매너 점수&lt;/div&gt;" style="text;html=1;align=center;verticalAlign=middle;resizable=0;points=[];autosize=1;strokeColor=none;fillColor=none;fontSize=19;fontStyle=1" vertex="1" parent="1">
          <mxGeometry x="580" y="689" width="470" height="220" as="geometry" />
        </mxCell>
        <mxCell id="XFpZ7dTew_JIVLUXs7wM-12" value="ㅁㅁ 는 ㅇㅇ 를 할 수 있다" style="text;html=1;align=center;verticalAlign=middle;resizable=0;points=[];autosize=1;strokeColor=none;fillColor=none;fontSize=19;fontStyle=1" vertex="1" parent="1">
          <mxGeometry x="690" y="635" width="250" height="40" as="geometry" />
        </mxCell>
        <mxCell id="XFpZ7dTew_JIVLUXs7wM-13" value="&lt;div&gt;로그인&lt;/div&gt;&lt;div&gt;로그아웃&lt;/div&gt;&lt;div&gt;&lt;br&gt;&lt;/div&gt;&lt;div&gt;알림 수신&lt;/div&gt;&lt;div&gt;&lt;br&gt;&lt;/div&gt;매칭 등록&lt;div&gt;매칭 취소&lt;/div&gt;&lt;div&gt;매칭 수정&lt;/div&gt;&lt;div&gt;매칭 리스트, 세부사항 조회&lt;/div&gt;&lt;div&gt;매칭 신청&lt;/div&gt;&lt;div&gt;&lt;br&gt;&lt;div&gt;정보 수정&lt;/div&gt;&lt;div&gt;정보 조회 (&lt;span style=&quot;background-color: transparent; color: light-dark(rgb(0, 0, 0), rgb(255, 255, 255));&quot;&gt;참여했던 매칭 조회)&lt;/span&gt;&lt;/div&gt;&lt;div&gt;회원 탈퇴&lt;/div&gt;&lt;div&gt;&lt;br&gt;&lt;/div&gt;&lt;div&gt;친구 신청&lt;/div&gt;&lt;div&gt;친구 등록&lt;/div&gt;&lt;div&gt;친구 삭제&lt;/div&gt;&lt;div&gt;친구 차단(매칭 차단)&lt;/div&gt;&lt;div&gt;친구 목록 수정&lt;/div&gt;&lt;div&gt;친구 목록 조회&lt;/div&gt;&lt;div&gt;&lt;br&gt;&lt;/div&gt;&lt;div&gt;채팅을 할 수 있음&lt;/div&gt;&lt;div&gt;&lt;br&gt;&lt;/div&gt;&lt;div&gt;&lt;span style=&quot;background-color: transparent; color: light-dark(rgb(0, 0, 0), rgb(255, 255, 255));&quot;&gt;게시판 글을 쓸 수 있음&lt;/span&gt;&lt;br&gt;&lt;/div&gt;&lt;div&gt;게시판 글을 삭제 (본인)&lt;span style=&quot;background-color: transparent; color: light-dark(rgb(0, 0, 0), rgb(255, 255, 255));&quot;&gt;&lt;br&gt;&lt;/span&gt;&lt;/div&gt;&lt;div&gt;게시판 글을 조회&lt;br&gt;&lt;/div&gt;&lt;div&gt;게시판 글을 수정 (본인)&lt;/div&gt;&lt;div&gt;&lt;br&gt;&lt;/div&gt;&lt;div&gt;&lt;span style=&quot;background-color: transparent; color: light-dark(rgb(0, 0, 0), rgb(255, 255, 255));&quot;&gt;매너 점수 조회&lt;/span&gt;&lt;br&gt;&lt;/div&gt;&lt;/div&gt;&lt;div&gt;상대 매너 점수 등록&lt;/div&gt;&lt;div&gt;&lt;br&gt;&lt;/div&gt;&lt;div&gt;신고&lt;/div&gt;" style="text;html=1;align=left;verticalAlign=middle;resizable=0;points=[];autosize=1;strokeColor=none;fillColor=none;fontSize=19;fontStyle=1" vertex="1" parent="1">
          <mxGeometry x="70" y="142" width="290" height="770" as="geometry" />
        </mxCell>
        <mxCell id="XFpZ7dTew_JIVLUXs7wM-14" value="&lt;div style=&quot;font-size: 19px; font-weight: 700; text-align: left;&quot;&gt;위치(장소 정보)지정 - 매칭 설정, 조회 키워드&lt;/div&gt;" style="text;html=1;align=center;verticalAlign=middle;resizable=0;points=[];autosize=1;strokeColor=none;fillColor=none;" vertex="1" parent="1">
          <mxGeometry x="50" y="1043" width="400" height="40" as="geometry" />
        </mxCell>
        <mxCell id="XFpZ7dTew_JIVLUXs7wM-15" value="회원가입&lt;div&gt;&lt;br&gt;&lt;/div&gt;&lt;div&gt;매칭 조회&lt;/div&gt;&lt;div&gt;&lt;br&gt;&lt;/div&gt;&lt;div&gt;로그인&lt;/div&gt;" style="text;html=1;align=left;verticalAlign=middle;resizable=0;points=[];autosize=1;strokeColor=none;fillColor=none;fontSize=19;fontStyle=1" vertex="1" parent="1">
          <mxGeometry x="590" y="142" width="100" height="130" as="geometry" />
        </mxCell>
        <mxCell id="XFpZ7dTew_JIVLUXs7wM-16" value="매칭 등록&lt;div&gt;매칭 삭제&lt;/div&gt;&lt;div&gt;매칭 수정&lt;/div&gt;&lt;div&gt;매칭 조회&lt;/div&gt;&lt;div&gt;매칭 개입&lt;/div&gt;&lt;div&gt;&lt;br&gt;&lt;/div&gt;&lt;div&gt;알림 보내기&lt;/div&gt;&lt;div&gt;&lt;br&gt;&lt;/div&gt;&lt;div&gt;&lt;div&gt;회원 정보 수정&lt;/div&gt;&lt;div&gt;회원 정보 조회&lt;/div&gt;&lt;div&gt;회원 정보 삭제&lt;/div&gt;&lt;div&gt;&lt;br&gt;&lt;/div&gt;&lt;div&gt;사용자 로그 조회&lt;/div&gt;&lt;div&gt;&lt;br&gt;&lt;/div&gt;&lt;div&gt;친구 차단&lt;/div&gt;&lt;div&gt;친구 목록 수정&lt;/div&gt;&lt;div&gt;친구 목록 조회&lt;/div&gt;&lt;div&gt;&lt;br&gt;&lt;/div&gt;&lt;div&gt;채팅을 할 수 있음&lt;/div&gt;&lt;div&gt;채팅 차단&lt;/div&gt;&lt;div&gt;&lt;br&gt;&lt;/div&gt;&lt;div&gt;&lt;span style=&quot;background-color: transparent; color: light-dark(rgb(0, 0, 0), rgb(255, 255, 255));&quot;&gt;게시판 글을 쓸 수 있음&lt;/span&gt;&lt;br&gt;&lt;/div&gt;&lt;div&gt;게시판 글을 삭제&lt;span style=&quot;background-color: transparent; color: light-dark(rgb(0, 0, 0), rgb(255, 255, 255));&quot;&gt;&lt;br&gt;&lt;/span&gt;&lt;/div&gt;&lt;div&gt;게시판 글을 조회&lt;br&gt;&lt;/div&gt;&lt;div&gt;&lt;br&gt;&lt;/div&gt;&lt;div&gt;&lt;span style=&quot;background-color: transparent; color: light-dark(rgb(0, 0, 0), rgb(255, 255, 255));&quot;&gt;매너 점수 조회&lt;/span&gt;&lt;/div&gt;&lt;/div&gt;&lt;div&gt;신고 목록 조회&lt;/div&gt;&lt;div&gt;블랙리스트&lt;/div&gt;&lt;div&gt;&lt;br&gt;&lt;/div&gt;&lt;div&gt;통계 확인&lt;/div&gt;" style="text;html=1;align=left;verticalAlign=middle;resizable=0;points=[];autosize=1;strokeColor=none;fillColor=none;fontSize=19;fontStyle=1" vertex="1" parent="1">
          <mxGeometry x="1110" y="142" width="220" height="700" as="geometry" />
        </mxCell>
      </root>
    </mxGraphModel>
  </diagram>
  <diagram id="-hWe-Gk-X11tYwHxpUuK" name="유스케이스">
    <mxGraphModel dx="1098" dy="835" grid="1" gridSize="10" guides="1" tooltips="1" connect="1" arrows="1" fold="1" page="1" pageScale="1" pageWidth="827" pageHeight="1169" math="0" shadow="0">
      <root>
        <mxCell id="0" />
        <mxCell id="1" parent="0" />
        <mxCell id="Gg4r0DaN0LE6ULb9wv_x-1" value="&lt;div&gt;로그인&lt;/div&gt;&lt;div&gt;로그아웃&lt;/div&gt;&lt;div&gt;&lt;br&gt;&lt;/div&gt;&lt;div&gt;알림 수신&lt;/div&gt;&lt;div&gt;&lt;br&gt;&lt;/div&gt;매칭 등록&lt;div&gt;매칭 취소&lt;/div&gt;&lt;div&gt;매칭 수정&lt;/div&gt;&lt;div&gt;매칭 리스트, 세부사항 조회&lt;/div&gt;&lt;div&gt;매칭 신청&lt;/div&gt;&lt;div&gt;&lt;br&gt;&lt;div&gt;정보 수정&lt;/div&gt;&lt;div&gt;정보 조회 (&lt;span style=&quot;background-color: transparent; color: light-dark(rgb(0, 0, 0), rgb(255, 255, 255));&quot;&gt;참여했던 매칭 조회)&lt;/span&gt;&lt;/div&gt;&lt;div&gt;회원 탈퇴&lt;/div&gt;&lt;div&gt;&lt;br&gt;&lt;/div&gt;&lt;div&gt;친구 신청&lt;/div&gt;&lt;div&gt;친구 등록&lt;/div&gt;&lt;div&gt;친구 삭제&lt;/div&gt;&lt;div&gt;친구 차단(매칭 차단)&lt;/div&gt;&lt;div&gt;&lt;span style=&quot;background-color: transparent; color: light-dark(rgb(0, 0, 0), rgb(255, 255, 255));&quot;&gt;친구 목록 조회&lt;/span&gt;&lt;br&gt;&lt;/div&gt;&lt;div&gt;&lt;br&gt;&lt;/div&gt;&lt;div&gt;채팅을 할 수 있음&lt;/div&gt;&lt;div&gt;&lt;br&gt;&lt;/div&gt;&lt;div&gt;&lt;span style=&quot;background-color: transparent; color: light-dark(rgb(0, 0, 0), rgb(255, 255, 255));&quot;&gt;게시판 글을 쓸 수 있음&lt;/span&gt;&lt;br&gt;&lt;/div&gt;&lt;div&gt;게시판 글을 삭제 (본인)&lt;span style=&quot;background-color: transparent; color: light-dark(rgb(0, 0, 0), rgb(255, 255, 255));&quot;&gt;&lt;br&gt;&lt;/span&gt;&lt;/div&gt;&lt;div&gt;게시판 글을 조회&lt;br&gt;&lt;/div&gt;&lt;div&gt;게시판 글을 수정 (본인)&lt;/div&gt;&lt;div&gt;&lt;br&gt;&lt;/div&gt;&lt;div&gt;&lt;span style=&quot;background-color: transparent; color: light-dark(rgb(0, 0, 0), rgb(255, 255, 255));&quot;&gt;매너 점수 조회&lt;/span&gt;&lt;br&gt;&lt;/div&gt;&lt;/div&gt;&lt;div&gt;상대 매너 점수 등록&lt;/div&gt;&lt;div&gt;&lt;br&gt;&lt;/div&gt;&lt;div&gt;신고&lt;/div&gt;" style="text;html=1;align=left;verticalAlign=middle;resizable=0;points=[];autosize=1;strokeColor=none;fillColor=none;fontSize=12;fontStyle=1" vertex="1" parent="1">
          <mxGeometry x="40" y="400" width="190" height="470" as="geometry" />
        </mxCell>
        <mxCell id="Gg4r0DaN0LE6ULb9wv_x-2" value="회원가입&lt;div&gt;&lt;br&gt;&lt;/div&gt;&lt;div&gt;매칭 조회&lt;/div&gt;&lt;div&gt;&lt;br&gt;&lt;/div&gt;&lt;div&gt;로그인&lt;/div&gt;" style="text;html=1;align=left;verticalAlign=middle;resizable=0;points=[];autosize=1;strokeColor=none;fillColor=none;fontSize=12;fontStyle=1" vertex="1" parent="1">
          <mxGeometry x="40" y="250" width="70" height="90" as="geometry" />
        </mxCell>
        <mxCell id="Gg4r0DaN0LE6ULb9wv_x-3" value="매칭 등록&lt;div&gt;매칭 삭제&lt;/div&gt;&lt;div&gt;매칭 수정&lt;/div&gt;&lt;div&gt;매칭 조회&lt;/div&gt;&lt;div&gt;매칭 개입&lt;/div&gt;&lt;div&gt;&lt;br&gt;&lt;/div&gt;&lt;div&gt;알림 보내기&lt;/div&gt;&lt;div&gt;&lt;br&gt;&lt;/div&gt;&lt;div&gt;&lt;div&gt;회원 정보 수정&lt;/div&gt;&lt;div&gt;회원 정보 조회&lt;/div&gt;&lt;div&gt;회원 정보 삭제&lt;/div&gt;&lt;div&gt;&lt;br&gt;&lt;/div&gt;&lt;div&gt;사용자 로그 조회&lt;/div&gt;&lt;div&gt;&lt;br&gt;&lt;/div&gt;&lt;div&gt;친구 차단&lt;/div&gt;&lt;div&gt;친구 목록 수정&lt;/div&gt;&lt;div&gt;친구 목록 조회&lt;/div&gt;&lt;div&gt;&lt;br&gt;&lt;/div&gt;&lt;div&gt;채팅을 할 수 있음&lt;/div&gt;&lt;div&gt;채팅 차단&lt;/div&gt;&lt;div&gt;&lt;br&gt;&lt;/div&gt;&lt;div&gt;&lt;span style=&quot;background-color: transparent; color: light-dark(rgb(0, 0, 0), rgb(255, 255, 255));&quot;&gt;게시판 글을 쓸 수 있음&lt;/span&gt;&lt;br&gt;&lt;/div&gt;&lt;div&gt;게시판 글을 삭제&lt;span style=&quot;background-color: transparent; color: light-dark(rgb(0, 0, 0), rgb(255, 255, 255));&quot;&gt;&lt;br&gt;&lt;/span&gt;&lt;/div&gt;&lt;div&gt;게시판 글을 조회&lt;br&gt;&lt;/div&gt;&lt;div&gt;&lt;br&gt;&lt;/div&gt;&lt;div&gt;&lt;span style=&quot;background-color: transparent; color: light-dark(rgb(0, 0, 0), rgb(255, 255, 255));&quot;&gt;매너 점수 조회&lt;/span&gt;&lt;/div&gt;&lt;/div&gt;&lt;div&gt;신고 목록 조회&lt;/div&gt;&lt;div&gt;블랙리스트&lt;/div&gt;&lt;div&gt;&lt;br&gt;&lt;/div&gt;&lt;div&gt;통계 확인&lt;/div&gt;" style="text;html=1;align=left;verticalAlign=middle;resizable=0;points=[];autosize=1;strokeColor=none;fillColor=none;fontSize=12;fontStyle=1" vertex="1" parent="1">
          <mxGeometry x="1570" y="220" width="140" height="450" as="geometry" />
        </mxCell>
        <mxCell id="Gg4r0DaN0LE6ULb9wv_x-4" value="동호회 매칭 시스템" style="shape=umlFrame;whiteSpace=wrap;html=1;pointerEvents=0;width=150;height=30;" vertex="1" parent="1">
          <mxGeometry x="310" y="190" width="1230" height="1170" as="geometry" />
        </mxCell>
        <mxCell id="Gg4r0DaN0LE6ULb9wv_x-5" value="비회원" style="shape=umlActor;verticalLabelPosition=bottom;verticalAlign=top;html=1;" vertex="1" parent="1">
          <mxGeometry x="237" y="270" width="30" height="60" as="geometry" />
        </mxCell>
        <mxCell id="Gg4r0DaN0LE6ULb9wv_x-7" value="회원" style="shape=umlActor;verticalLabelPosition=bottom;verticalAlign=top;html=1;" vertex="1" parent="1">
          <mxGeometry x="237" y="750" width="30" height="60" as="geometry" />
        </mxCell>
        <mxCell id="Gg4r0DaN0LE6ULb9wv_x-10" value="매칭 조회" style="ellipse;whiteSpace=wrap;html=1;" vertex="1" parent="1">
          <mxGeometry x="406.5" y="300" width="130" height="50" as="geometry" />
        </mxCell>
        <mxCell id="Gg4r0DaN0LE6ULb9wv_x-11" value="매칭&lt;div&gt;등록&lt;/div&gt;" style="ellipse;whiteSpace=wrap;html=1;" vertex="1" parent="1">
          <mxGeometry x="470" y="400" width="50" height="50" as="geometry" />
        </mxCell>
        <mxCell id="Gg4r0DaN0LE6ULb9wv_x-13" value="매칭&lt;div&gt;취소&lt;/div&gt;" style="ellipse;whiteSpace=wrap;html=1;" vertex="1" parent="1">
          <mxGeometry x="520" y="400" width="50" height="50" as="geometry" />
        </mxCell>
        <mxCell id="Gg4r0DaN0LE6ULb9wv_x-14" value="매칭&lt;div&gt;수정&lt;/div&gt;" style="ellipse;whiteSpace=wrap;html=1;" vertex="1" parent="1">
          <mxGeometry x="570" y="400" width="50" height="50" as="geometry" />
        </mxCell>
        <mxCell id="Gg4r0DaN0LE6ULb9wv_x-15" value="매칭&lt;div&gt;신청&lt;/div&gt;" style="ellipse;whiteSpace=wrap;html=1;" vertex="1" parent="1">
          <mxGeometry x="620" y="400" width="50" height="50" as="geometry" />
        </mxCell>
        <mxCell id="Gg4r0DaN0LE6ULb9wv_x-16" value="리스트" style="ellipse;whiteSpace=wrap;html=1;" vertex="1" parent="1">
          <mxGeometry x="416.5" y="240" width="50" height="50" as="geometry" />
        </mxCell>
        <mxCell id="Gg4r0DaN0LE6ULb9wv_x-17" value="세부사항" style="ellipse;whiteSpace=wrap;html=1;" vertex="1" parent="1">
          <mxGeometry x="476.5" y="240" width="50" height="50" as="geometry" />
        </mxCell>
        <mxCell id="Gg4r0DaN0LE6ULb9wv_x-30" value="매칭" style="ellipse;whiteSpace=wrap;html=1;" vertex="1" parent="1">
          <mxGeometry x="530" y="475" width="130" height="50" as="geometry" />
        </mxCell>
        <mxCell id="Gg4r0DaN0LE6ULb9wv_x-31" value="정보&lt;div&gt;수정&lt;/div&gt;" style="ellipse;whiteSpace=wrap;html=1;" vertex="1" parent="1">
          <mxGeometry x="532" y="1080" width="50" height="50" as="geometry" />
        </mxCell>
        <mxCell id="Gg4r0DaN0LE6ULb9wv_x-32" value="정보&lt;div&gt;조회&lt;/div&gt;" style="ellipse;whiteSpace=wrap;html=1;" vertex="1" parent="1">
          <mxGeometry x="582" y="1080" width="50" height="50" as="geometry" />
        </mxCell>
        <mxCell id="Gg4r0DaN0LE6ULb9wv_x-33" value="회원&lt;div&gt;탈퇴&lt;/div&gt;" style="ellipse;whiteSpace=wrap;html=1;" vertex="1" parent="1">
          <mxGeometry x="632" y="1080" width="50" height="50" as="geometry" />
        </mxCell>
        <mxCell id="Gg4r0DaN0LE6ULb9wv_x-35" value="나의 정보" style="ellipse;whiteSpace=wrap;html=1;" vertex="1" parent="1">
          <mxGeometry x="526.5" y="1150" width="130" height="50" as="geometry" />
        </mxCell>
        <mxCell id="Gg4r0DaN0LE6ULb9wv_x-36" value="&lt;div&gt;친구&lt;/div&gt;&lt;div&gt;신청&lt;/div&gt;" style="ellipse;whiteSpace=wrap;html=1;" vertex="1" parent="1">
          <mxGeometry x="480" y="570" width="50" height="50" as="geometry" />
        </mxCell>
        <mxCell id="Gg4r0DaN0LE6ULb9wv_x-37" value="친구&lt;div&gt;등록&lt;/div&gt;" style="ellipse;whiteSpace=wrap;html=1;" vertex="1" parent="1">
          <mxGeometry x="530" y="570" width="50" height="50" as="geometry" />
        </mxCell>
        <mxCell id="Gg4r0DaN0LE6ULb9wv_x-38" value="친구&lt;div&gt;삭제&lt;/div&gt;" style="ellipse;whiteSpace=wrap;html=1;" vertex="1" parent="1">
          <mxGeometry x="579.25" y="570" width="50" height="50" as="geometry" />
        </mxCell>
        <mxCell id="Gg4r0DaN0LE6ULb9wv_x-39" value="친구&lt;div&gt;차단&lt;/div&gt;" style="ellipse;whiteSpace=wrap;html=1;" vertex="1" parent="1">
          <mxGeometry x="629.25" y="570" width="50" height="50" as="geometry" />
        </mxCell>
        <mxCell id="Gg4r0DaN0LE6ULb9wv_x-40" value="친구" style="ellipse;whiteSpace=wrap;html=1;" vertex="1" parent="1">
          <mxGeometry x="566.5" y="635" width="130" height="50" as="geometry" />
        </mxCell>
        <mxCell id="Gg4r0DaN0LE6ULb9wv_x-41" value="친구목록&lt;div&gt;조회&lt;/div&gt;" style="ellipse;whiteSpace=wrap;html=1;" vertex="1" parent="1">
          <mxGeometry x="679.25" y="570" width="50" height="50" as="geometry" />
        </mxCell>
        <mxCell id="Gg4r0DaN0LE6ULb9wv_x-43" value="채팅" style="ellipse;whiteSpace=wrap;html=1;" vertex="1" parent="1">
          <mxGeometry x="916.75" y="570" width="130" height="50" as="geometry" />
        </mxCell>
        <mxCell id="Gg4r0DaN0LE6ULb9wv_x-44" value="채팅목록&lt;div&gt;조회&lt;/div&gt;" style="ellipse;whiteSpace=wrap;html=1;" vertex="1" parent="1">
          <mxGeometry x="906.75" y="495" width="50" height="50" as="geometry" />
        </mxCell>
        <mxCell id="Gg4r0DaN0LE6ULb9wv_x-45" value="채팅방&lt;div&gt;삭제&lt;/div&gt;" style="ellipse;whiteSpace=wrap;html=1;" vertex="1" parent="1">
          <mxGeometry x="1006.75" y="495" width="50" height="50" as="geometry" />
        </mxCell>
        <mxCell id="Gg4r0DaN0LE6ULb9wv_x-46" value="채팅방&lt;div&gt;생성&lt;/div&gt;" style="ellipse;whiteSpace=wrap;html=1;" vertex="1" parent="1">
          <mxGeometry x="856.75" y="495" width="50" height="50" as="geometry" />
        </mxCell>
        <mxCell id="Gg4r0DaN0LE6ULb9wv_x-48" value="채팅" style="ellipse;whiteSpace=wrap;html=1;" vertex="1" parent="1">
          <mxGeometry x="956.75" y="495" width="50" height="50" as="geometry" />
        </mxCell>
        <mxCell id="Gg4r0DaN0LE6ULb9wv_x-49" value="커뮤니티" style="ellipse;whiteSpace=wrap;html=1;" vertex="1" parent="1">
          <mxGeometry x="566.75" y="820" width="130" height="50" as="geometry" />
        </mxCell>
        <mxCell id="Gg4r0DaN0LE6ULb9wv_x-50" value="글 목록&lt;div&gt;조회&lt;/div&gt;" style="ellipse;whiteSpace=wrap;html=1;" vertex="1" parent="1">
          <mxGeometry x="510" y="750" width="50" height="50" as="geometry" />
        </mxCell>
        <mxCell id="Gg4r0DaN0LE6ULb9wv_x-51" value="본인 글&lt;div&gt;수정&lt;/div&gt;" style="ellipse;whiteSpace=wrap;html=1;" vertex="1" parent="1">
          <mxGeometry x="660" y="750" width="50" height="50" as="geometry" />
        </mxCell>
        <mxCell id="Gg4r0DaN0LE6ULb9wv_x-52" value="글쓰기" style="ellipse;whiteSpace=wrap;html=1;" vertex="1" parent="1">
          <mxGeometry x="560" y="750" width="50" height="50" as="geometry" />
        </mxCell>
        <mxCell id="Gg4r0DaN0LE6ULb9wv_x-53" value="글내용&lt;div&gt;조회&lt;/div&gt;" style="ellipse;whiteSpace=wrap;html=1;" vertex="1" parent="1">
          <mxGeometry x="610" y="750" width="50" height="50" as="geometry" />
        </mxCell>
        <mxCell id="Gg4r0DaN0LE6ULb9wv_x-54" value="매너&lt;span style=&quot;background-color: transparent; color: light-dark(rgb(0, 0, 0), rgb(255, 255, 255));&quot;&gt;점수&lt;/span&gt;&lt;div&gt;&lt;span style=&quot;background-color: transparent; color: light-dark(rgb(0, 0, 0), rgb(255, 255, 255));&quot;&gt;조회&lt;/span&gt;&lt;/div&gt;" style="ellipse;whiteSpace=wrap;html=1;" vertex="1" parent="1">
          <mxGeometry x="632" y="920" width="50" height="50" as="geometry" />
        </mxCell>
        <mxCell id="Gg4r0DaN0LE6ULb9wv_x-55" value="상대&lt;div&gt;매너점수&lt;/div&gt;&lt;div&gt;등록&lt;/div&gt;" style="ellipse;whiteSpace=wrap;html=1;" vertex="1" parent="1">
          <mxGeometry x="750" y="400" width="50" height="50" as="geometry" />
        </mxCell>
        <mxCell id="Gg4r0DaN0LE6ULb9wv_x-56" value="알림" style="ellipse;whiteSpace=wrap;html=1;" vertex="1" parent="1">
          <mxGeometry x="760" y="750" width="50" height="50" as="geometry" />
        </mxCell>
        <mxCell id="Gg4r0DaN0LE6ULb9wv_x-57" value="상대 정보" style="ellipse;whiteSpace=wrap;html=1;" vertex="1" parent="1">
          <mxGeometry x="566.5" y="985" width="130" height="50" as="geometry" />
        </mxCell>
        <mxCell id="Gg4r0DaN0LE6ULb9wv_x-58" value="회원가입" style="ellipse;whiteSpace=wrap;html=1;" vertex="1" parent="1">
          <mxGeometry x="60" y="960" width="130" height="50" as="geometry" />
        </mxCell>
        <mxCell id="Gg4r0DaN0LE6ULb9wv_x-59" value="로그인" style="ellipse;whiteSpace=wrap;html=1;" vertex="1" parent="1">
          <mxGeometry x="336.5" y="770" width="130" height="50" as="geometry" />
        </mxCell>
        <mxCell id="Gg4r0DaN0LE6ULb9wv_x-60" value="로그아웃" style="ellipse;whiteSpace=wrap;html=1;" vertex="1" parent="1">
          <mxGeometry x="60" y="1090" width="130" height="50" as="geometry" />
        </mxCell>
        <mxCell id="Gg4r0DaN0LE6ULb9wv_x-62" value="매칭&lt;div&gt;삭제&lt;/div&gt;" style="ellipse;whiteSpace=wrap;html=1;" vertex="1" parent="1">
          <mxGeometry x="1308.75" y="230" width="50" height="50" as="geometry" />
        </mxCell>
        <mxCell id="Gg4r0DaN0LE6ULb9wv_x-63" value="매칭&lt;div&gt;수정&lt;/div&gt;" style="ellipse;whiteSpace=wrap;html=1;" vertex="1" parent="1">
          <mxGeometry x="1358.25" y="230" width="50" height="50" as="geometry" />
        </mxCell>
        <mxCell id="Gg4r0DaN0LE6ULb9wv_x-64" value="매칭&lt;div&gt;조회&lt;/div&gt;" style="ellipse;whiteSpace=wrap;html=1;" vertex="1" parent="1">
          <mxGeometry x="1408.25" y="230" width="50" height="50" as="geometry" />
        </mxCell>
        <mxCell id="Gg4r0DaN0LE6ULb9wv_x-65" value="매칭" style="ellipse;whiteSpace=wrap;html=1;" vertex="1" parent="1">
          <mxGeometry x="1300" y="305" width="130" height="50" as="geometry" />
        </mxCell>
        <mxCell id="Gg4r0DaN0LE6ULb9wv_x-69" value="알림" style="ellipse;whiteSpace=wrap;html=1;" vertex="1" parent="1">
          <mxGeometry x="1303.5" y="1290" width="130" height="50" as="geometry" />
        </mxCell>
        <mxCell id="Gg4r0DaN0LE6ULb9wv_x-71" value="닉네임" style="ellipse;whiteSpace=wrap;html=1;" vertex="1" parent="1">
          <mxGeometry x="582.5" y="920" width="50" height="50" as="geometry" />
        </mxCell>
        <mxCell id="Gg4r0DaN0LE6ULb9wv_x-80" value="use" style="html=1;verticalAlign=bottom;endArrow=open;curved=0;rounded=0;exitX=1;exitY=0.3333333333333333;exitDx=0;exitDy=0;exitPerimeter=0;entryX=0.005;entryY=0.328;entryDx=0;entryDy=0;entryPerimeter=0;endFill=0;" edge="1" parent="1" source="Gg4r0DaN0LE6ULb9wv_x-5" target="Gg4r0DaN0LE6ULb9wv_x-10">
          <mxGeometry width="80" relative="1" as="geometry">
            <mxPoint x="290" y="320" as="sourcePoint" />
            <mxPoint x="370" y="320" as="targetPoint" />
          </mxGeometry>
        </mxCell>
        <mxCell id="Gg4r0DaN0LE6ULb9wv_x-81" value="use" style="html=1;verticalAlign=bottom;endArrow=open;curved=0;rounded=0;endFill=0;" edge="1" parent="1" target="Gg4r0DaN0LE6ULb9wv_x-50">
          <mxGeometry width="80" relative="1" as="geometry">
            <mxPoint x="270" y="290" as="sourcePoint" />
            <mxPoint x="417" y="326" as="targetPoint" />
          </mxGeometry>
        </mxCell>
        <mxCell id="Gg4r0DaN0LE6ULb9wv_x-82" value="본인 글&lt;div&gt;삭제&lt;/div&gt;" style="ellipse;whiteSpace=wrap;html=1;" vertex="1" parent="1">
          <mxGeometry x="710" y="750" width="50" height="50" as="geometry" />
        </mxCell>
        <mxCell id="Gg4r0DaN0LE6ULb9wv_x-83" value="use" style="html=1;verticalAlign=bottom;endArrow=open;curved=0;rounded=0;entryX=0;entryY=0.5;entryDx=0;entryDy=0;endFill=0;" edge="1" parent="1" target="Gg4r0DaN0LE6ULb9wv_x-59">
          <mxGeometry width="80" relative="1" as="geometry">
            <mxPoint x="270" y="770" as="sourcePoint" />
            <mxPoint x="430" y="810" as="targetPoint" />
          </mxGeometry>
        </mxCell>
        <mxCell id="Gg4r0DaN0LE6ULb9wv_x-84" value="매칭&lt;div&gt;정보&lt;/div&gt;&lt;div&gt;조회&lt;/div&gt;" style="ellipse;whiteSpace=wrap;html=1;" vertex="1" parent="1">
          <mxGeometry x="681.5" y="1080" width="50" height="50" as="geometry" />
        </mxCell>
        <mxCell id="Gg4r0DaN0LE6ULb9wv_x-85" value="과거&lt;div&gt;매칭정보&lt;/div&gt;" style="ellipse;whiteSpace=wrap;html=1;" vertex="1" parent="1">
          <mxGeometry x="806.75" y="1055" width="50" height="50" as="geometry" />
        </mxCell>
        <mxCell id="Gg4r0DaN0LE6ULb9wv_x-86" value="&lt;div&gt;현재&lt;/div&gt;&lt;div&gt;매칭신청정보&lt;/div&gt;" style="ellipse;whiteSpace=wrap;html=1;" vertex="1" parent="1">
          <mxGeometry x="806.75" y="1105" width="50" height="50" as="geometry" />
        </mxCell>
        <mxCell id="Gg4r0DaN0LE6ULb9wv_x-87" value="" style="endArrow=open;endSize=12;dashed=1;html=1;rounded=0;exitX=0;exitY=0.5;exitDx=0;exitDy=0;entryX=1;entryY=0.5;entryDx=0;entryDy=0;" edge="1" parent="1" source="Gg4r0DaN0LE6ULb9wv_x-85" target="Gg4r0DaN0LE6ULb9wv_x-84">
          <mxGeometry width="160" relative="1" as="geometry">
            <mxPoint x="740" y="880" as="sourcePoint" />
            <mxPoint x="900" y="880" as="targetPoint" />
          </mxGeometry>
        </mxCell>
        <mxCell id="86wg8HdFibVKaGJC5Y2k-31" value="&amp;lt;extend&amp;gt;" style="edgeLabel;html=1;align=center;verticalAlign=middle;resizable=0;points=[];" vertex="1" connectable="0" parent="Gg4r0DaN0LE6ULb9wv_x-87">
          <mxGeometry x="-0.009" relative="1" as="geometry">
            <mxPoint x="1" as="offset" />
          </mxGeometry>
        </mxCell>
        <mxCell id="Gg4r0DaN0LE6ULb9wv_x-88" value="" style="endArrow=open;endSize=12;dashed=1;html=1;rounded=0;exitX=0;exitY=0.5;exitDx=0;exitDy=0;entryX=1;entryY=0.5;entryDx=0;entryDy=0;" edge="1" parent="1" source="Gg4r0DaN0LE6ULb9wv_x-86" target="Gg4r0DaN0LE6ULb9wv_x-84">
          <mxGeometry width="160" relative="1" as="geometry">
            <mxPoint x="817" y="1090" as="sourcePoint" />
            <mxPoint x="742" y="1115" as="targetPoint" />
          </mxGeometry>
        </mxCell>
        <mxCell id="86wg8HdFibVKaGJC5Y2k-32" value="&amp;lt;extend&amp;gt;" style="edgeLabel;html=1;align=center;verticalAlign=middle;resizable=0;points=[];" vertex="1" connectable="0" parent="Gg4r0DaN0LE6ULb9wv_x-88">
          <mxGeometry x="-0.1889" y="3" relative="1" as="geometry">
            <mxPoint x="1" as="offset" />
          </mxGeometry>
        </mxCell>
        <mxCell id="Gg4r0DaN0LE6ULb9wv_x-89" value="" style="endArrow=open;endSize=12;dashed=1;html=1;rounded=0;exitX=0;exitY=0.5;exitDx=0;exitDy=0;entryX=1;entryY=0.5;entryDx=0;entryDy=0;" edge="1" parent="1" source="Gg4r0DaN0LE6ULb9wv_x-43" target="Gg4r0DaN0LE6ULb9wv_x-40">
          <mxGeometry width="160" relative="1" as="geometry">
            <mxPoint x="845" y="622.5" as="sourcePoint" />
            <mxPoint x="770" y="647.5" as="targetPoint" />
          </mxGeometry>
        </mxCell>
        <mxCell id="86wg8HdFibVKaGJC5Y2k-4" value="&amp;lt;include&amp;gt;" style="edgeLabel;html=1;align=center;verticalAlign=middle;resizable=0;points=[];" vertex="1" connectable="0" parent="Gg4r0DaN0LE6ULb9wv_x-89">
          <mxGeometry x="-0.1301" y="-1" relative="1" as="geometry">
            <mxPoint y="1" as="offset" />
          </mxGeometry>
        </mxCell>
        <mxCell id="Gg4r0DaN0LE6ULb9wv_x-90" value="" style="endArrow=open;endSize=12;dashed=1;html=1;rounded=0;exitX=0;exitY=0.5;exitDx=0;exitDy=0;entryX=1;entryY=0.5;entryDx=0;entryDy=0;" edge="1" parent="1" source="Gg4r0DaN0LE6ULb9wv_x-43" target="Gg4r0DaN0LE6ULb9wv_x-30">
          <mxGeometry width="160" relative="1" as="geometry">
            <mxPoint x="835" y="520" as="sourcePoint" />
            <mxPoint x="760" y="545" as="targetPoint" />
          </mxGeometry>
        </mxCell>
        <mxCell id="86wg8HdFibVKaGJC5Y2k-30" value="&amp;lt;include&amp;gt;" style="edgeLabel;html=1;align=center;verticalAlign=middle;resizable=0;points=[];" vertex="1" connectable="0" parent="Gg4r0DaN0LE6ULb9wv_x-90">
          <mxGeometry x="-0.0801" y="2" relative="1" as="geometry">
            <mxPoint y="-1" as="offset" />
          </mxGeometry>
        </mxCell>
        <mxCell id="3rxa3Ml4vN22EebPkiDX-5" value="글쓰기" style="ellipse;whiteSpace=wrap;html=1;" vertex="1" parent="1">
          <mxGeometry x="1283.5" y="585" width="50" height="50" as="geometry" />
        </mxCell>
        <mxCell id="3rxa3Ml4vN22EebPkiDX-6" value="글삭제" style="ellipse;whiteSpace=wrap;html=1;" vertex="1" parent="1">
          <mxGeometry x="1333.5" y="585" width="50" height="50" as="geometry" />
        </mxCell>
        <mxCell id="3rxa3Ml4vN22EebPkiDX-7" value="글조회" style="ellipse;whiteSpace=wrap;html=1;" vertex="1" parent="1">
          <mxGeometry x="1383.5" y="585" width="50" height="50" as="geometry" />
        </mxCell>
        <mxCell id="3rxa3Ml4vN22EebPkiDX-8" value="커뮤니티" style="ellipse;whiteSpace=wrap;html=1;" vertex="1" parent="1">
          <mxGeometry x="1300" y="660" width="130" height="50" as="geometry" />
        </mxCell>
        <mxCell id="3rxa3Ml4vN22EebPkiDX-9" value="채팅&lt;div&gt;생성&lt;/div&gt;" style="ellipse;whiteSpace=wrap;html=1;" vertex="1" parent="1">
          <mxGeometry x="1263.25" y="760" width="50" height="50" as="geometry" />
        </mxCell>
        <mxCell id="3rxa3Ml4vN22EebPkiDX-10" value="채팅&lt;div&gt;삭제&lt;/div&gt;" style="ellipse;whiteSpace=wrap;html=1;" vertex="1" parent="1">
          <mxGeometry x="1313.25" y="760" width="50" height="50" as="geometry" />
        </mxCell>
        <mxCell id="3rxa3Ml4vN22EebPkiDX-11" value="채팅&lt;div&gt;차단&lt;/div&gt;" style="ellipse;whiteSpace=wrap;html=1;" vertex="1" parent="1">
          <mxGeometry x="1363.25" y="760" width="50" height="50" as="geometry" />
        </mxCell>
        <mxCell id="3rxa3Ml4vN22EebPkiDX-12" value="채팅" style="ellipse;whiteSpace=wrap;html=1;" vertex="1" parent="1">
          <mxGeometry x="1300" y="835" width="130" height="50" as="geometry" />
        </mxCell>
        <mxCell id="86wg8HdFibVKaGJC5Y2k-1" value="명세서" style="text;html=1;align=center;verticalAlign=middle;resizable=0;points=[];autosize=1;strokeColor=none;fillColor=none;" vertex="1" parent="1">
          <mxGeometry x="460" y="370" width="60" height="30" as="geometry" />
        </mxCell>
        <mxCell id="86wg8HdFibVKaGJC5Y2k-2" value="명세서" style="text;html=1;align=center;verticalAlign=middle;resizable=0;points=[];autosize=1;strokeColor=none;fillColor=none;" vertex="1" parent="1">
          <mxGeometry x="606.5" y="720" width="60" height="30" as="geometry" />
        </mxCell>
        <mxCell id="86wg8HdFibVKaGJC5Y2k-3" value="" style="endArrow=open;endSize=12;dashed=1;html=1;rounded=0;exitX=0;exitY=0.5;exitDx=0;exitDy=0;entryX=0.975;entryY=0.348;entryDx=0;entryDy=0;entryPerimeter=0;" edge="1" parent="1" source="Gg4r0DaN0LE6ULb9wv_x-40" target="Gg4r0DaN0LE6ULb9wv_x-59">
          <mxGeometry width="160" relative="1" as="geometry">
            <mxPoint x="560" y="780" as="sourcePoint" />
            <mxPoint x="367" y="685" as="targetPoint" />
          </mxGeometry>
        </mxCell>
        <mxCell id="86wg8HdFibVKaGJC5Y2k-42" value="&amp;lt;include&amp;gt;" style="edgeLabel;html=1;align=center;verticalAlign=middle;resizable=0;points=[];" vertex="1" connectable="0" parent="86wg8HdFibVKaGJC5Y2k-3">
          <mxGeometry x="-0.0076" relative="1" as="geometry">
            <mxPoint x="-1" as="offset" />
          </mxGeometry>
        </mxCell>
        <mxCell id="86wg8HdFibVKaGJC5Y2k-6" value="신고" style="ellipse;whiteSpace=wrap;html=1;" vertex="1" parent="1">
          <mxGeometry x="806.75" y="935" width="50" height="50" as="geometry" />
        </mxCell>
        <mxCell id="86wg8HdFibVKaGJC5Y2k-7" value="알림" style="ellipse;whiteSpace=wrap;html=1;" vertex="1" parent="1">
          <mxGeometry x="730" y="570" width="50" height="50" as="geometry" />
        </mxCell>
        <mxCell id="86wg8HdFibVKaGJC5Y2k-8" value="알림" style="ellipse;whiteSpace=wrap;html=1;" vertex="1" parent="1">
          <mxGeometry x="670" y="400" width="50" height="50" as="geometry" />
        </mxCell>
        <mxCell id="86wg8HdFibVKaGJC5Y2k-10" value="회원정보&lt;div&gt;수정&lt;/div&gt;" style="ellipse;whiteSpace=wrap;html=1;" vertex="1" parent="1">
          <mxGeometry x="1240" y="930" width="50" height="50" as="geometry" />
        </mxCell>
        <mxCell id="86wg8HdFibVKaGJC5Y2k-11" value="회원정보&lt;div&gt;조회&lt;/div&gt;" style="ellipse;whiteSpace=wrap;html=1;" vertex="1" parent="1">
          <mxGeometry x="1290" y="930" width="50" height="50" as="geometry" />
        </mxCell>
        <mxCell id="86wg8HdFibVKaGJC5Y2k-12" value="회원정보&lt;div&gt;삭제&lt;/div&gt;" style="ellipse;whiteSpace=wrap;html=1;" vertex="1" parent="1">
          <mxGeometry x="1340" y="930" width="50" height="50" as="geometry" />
        </mxCell>
        <mxCell id="86wg8HdFibVKaGJC5Y2k-13" value="회원관리" style="ellipse;whiteSpace=wrap;html=1;" vertex="1" parent="1">
          <mxGeometry x="1300" y="1005" width="130" height="50" as="geometry" />
        </mxCell>
        <mxCell id="86wg8HdFibVKaGJC5Y2k-14" value="회원수" style="ellipse;whiteSpace=wrap;html=1;" vertex="1" parent="1">
          <mxGeometry x="1290" y="1080" width="50" height="50" as="geometry" />
        </mxCell>
        <mxCell id="86wg8HdFibVKaGJC5Y2k-15" value="매칭&lt;div&gt;건수&lt;/div&gt;" style="ellipse;whiteSpace=wrap;html=1;" vertex="1" parent="1">
          <mxGeometry x="1340" y="1080" width="50" height="50" as="geometry" />
        </mxCell>
        <mxCell id="86wg8HdFibVKaGJC5Y2k-16" value="연령대" style="ellipse;whiteSpace=wrap;html=1;" vertex="1" parent="1">
          <mxGeometry x="1390" y="1080" width="50" height="50" as="geometry" />
        </mxCell>
        <mxCell id="86wg8HdFibVKaGJC5Y2k-17" value="통계 확인" style="ellipse;whiteSpace=wrap;html=1;" vertex="1" parent="1">
          <mxGeometry x="1300" y="1155" width="130" height="50" as="geometry" />
        </mxCell>
        <mxCell id="86wg8HdFibVKaGJC5Y2k-18" value="매칭&lt;div&gt;개입&lt;/div&gt;" style="ellipse;whiteSpace=wrap;html=1;" vertex="1" parent="1">
          <mxGeometry x="1258.75" y="230" width="50" height="50" as="geometry" />
        </mxCell>
        <mxCell id="86wg8HdFibVKaGJC5Y2k-20" value="알림" style="ellipse;whiteSpace=wrap;html=1;" vertex="1" parent="1">
          <mxGeometry x="1060" y="495" width="50" height="50" as="geometry" />
        </mxCell>
        <mxCell id="86wg8HdFibVKaGJC5Y2k-21" value="use" style="html=1;verticalAlign=bottom;endArrow=open;curved=0;rounded=0;entryX=0;entryY=0.5;entryDx=0;entryDy=0;endFill=0;exitX=1;exitY=0.3333333333333333;exitDx=0;exitDy=0;exitPerimeter=0;" edge="1" parent="1" source="Gg4r0DaN0LE6ULb9wv_x-7" target="Gg4r0DaN0LE6ULb9wv_x-10">
          <mxGeometry width="80" relative="1" as="geometry">
            <mxPoint x="280" y="780" as="sourcePoint" />
            <mxPoint x="347" y="805" as="targetPoint" />
          </mxGeometry>
        </mxCell>
        <mxCell id="3rxa3Ml4vN22EebPkiDX-2" value="친구목록&lt;div&gt;수정&lt;/div&gt;" style="ellipse;whiteSpace=wrap;html=1;" vertex="1" parent="1">
          <mxGeometry x="1333.5" y="400" width="50" height="50" as="geometry" />
        </mxCell>
        <mxCell id="3rxa3Ml4vN22EebPkiDX-1" value="친구목록&lt;div&gt;조회&lt;/div&gt;" style="ellipse;whiteSpace=wrap;html=1;" vertex="1" parent="1">
          <mxGeometry x="1283.5" y="400" width="50" height="50" as="geometry" />
        </mxCell>
        <mxCell id="3rxa3Ml4vN22EebPkiDX-3" value="친구&lt;div&gt;삭제&lt;/div&gt;" style="ellipse;whiteSpace=wrap;html=1;" vertex="1" parent="1">
          <mxGeometry x="1383.5" y="400" width="50" height="50" as="geometry" />
        </mxCell>
        <mxCell id="3rxa3Ml4vN22EebPkiDX-4" value="친구" style="ellipse;whiteSpace=wrap;html=1;" vertex="1" parent="1">
          <mxGeometry x="1300" y="475" width="130" height="50" as="geometry" />
        </mxCell>
        <mxCell id="86wg8HdFibVKaGJC5Y2k-23" value="채팅내용&lt;div&gt;조회&lt;/div&gt;" style="ellipse;whiteSpace=wrap;html=1;" vertex="1" parent="1">
          <mxGeometry x="1416.75" y="760" width="50" height="50" as="geometry" />
        </mxCell>
        <mxCell id="86wg8HdFibVKaGJC5Y2k-24" value="매너점수&lt;div&gt;조회&lt;/div&gt;" style="ellipse;whiteSpace=wrap;html=1;" vertex="1" parent="1">
          <mxGeometry x="1390" y="930" width="50" height="50" as="geometry" />
        </mxCell>
        <mxCell id="86wg8HdFibVKaGJC5Y2k-25" value="매너점수&lt;div&gt;수정&lt;/div&gt;" style="ellipse;whiteSpace=wrap;html=1;" vertex="1" parent="1">
          <mxGeometry x="1440" y="930" width="50" height="50" as="geometry" />
        </mxCell>
        <mxCell id="86wg8HdFibVKaGJC5Y2k-29" value="신고 조회" style="ellipse;whiteSpace=wrap;html=1;" vertex="1" parent="1">
          <mxGeometry x="1300" y="1220" width="130" height="50" as="geometry" />
        </mxCell>
        <mxCell id="86wg8HdFibVKaGJC5Y2k-33" value="" style="endArrow=open;endSize=12;dashed=1;html=1;rounded=0;exitX=0;exitY=0.5;exitDx=0;exitDy=0;entryX=1;entryY=0.5;entryDx=0;entryDy=0;" edge="1" parent="1" source="86wg8HdFibVKaGJC5Y2k-6" target="Gg4r0DaN0LE6ULb9wv_x-57">
          <mxGeometry width="160" relative="1" as="geometry">
            <mxPoint x="940" y="920" as="sourcePoint" />
            <mxPoint x="720" y="985" as="targetPoint" />
          </mxGeometry>
        </mxCell>
        <mxCell id="86wg8HdFibVKaGJC5Y2k-34" value="&amp;lt;extend&amp;gt;" style="edgeLabel;html=1;align=center;verticalAlign=middle;resizable=0;points=[];" vertex="1" connectable="0" parent="86wg8HdFibVKaGJC5Y2k-33">
          <mxGeometry x="-0.1301" y="-1" relative="1" as="geometry">
            <mxPoint y="1" as="offset" />
          </mxGeometry>
        </mxCell>
        <mxCell id="86wg8HdFibVKaGJC5Y2k-35" value="" style="endArrow=open;endSize=12;dashed=1;html=1;rounded=0;exitX=0;exitY=0.5;exitDx=0;exitDy=0;entryX=1;entryY=0.5;entryDx=0;entryDy=0;" edge="1" parent="1" source="Gg4r0DaN0LE6ULb9wv_x-57" target="Gg4r0DaN0LE6ULb9wv_x-59">
          <mxGeometry width="160" relative="1" as="geometry">
            <mxPoint x="566.5" y="927.5" as="sourcePoint" />
            <mxPoint x="346.5" y="992.5" as="targetPoint" />
          </mxGeometry>
        </mxCell>
        <mxCell id="86wg8HdFibVKaGJC5Y2k-36" value="&amp;lt;include&amp;gt;" style="edgeLabel;html=1;align=center;verticalAlign=middle;resizable=0;points=[];" vertex="1" connectable="0" parent="86wg8HdFibVKaGJC5Y2k-35">
          <mxGeometry x="-0.1301" y="-1" relative="1" as="geometry">
            <mxPoint y="1" as="offset" />
          </mxGeometry>
        </mxCell>
        <mxCell id="86wg8HdFibVKaGJC5Y2k-37" value="" style="endArrow=open;endSize=12;dashed=1;html=1;rounded=0;exitX=0;exitY=0.5;exitDx=0;exitDy=0;entryX=1;entryY=0.5;entryDx=0;entryDy=0;" edge="1" parent="1" source="Gg4r0DaN0LE6ULb9wv_x-49" target="Gg4r0DaN0LE6ULb9wv_x-59">
          <mxGeometry width="160" relative="1" as="geometry">
            <mxPoint x="500" y="850" as="sourcePoint" />
            <mxPoint x="280" y="915" as="targetPoint" />
          </mxGeometry>
        </mxCell>
        <mxCell id="86wg8HdFibVKaGJC5Y2k-38" value="&amp;lt;include&amp;gt;" style="edgeLabel;html=1;align=center;verticalAlign=middle;resizable=0;points=[];" vertex="1" connectable="0" parent="86wg8HdFibVKaGJC5Y2k-37">
          <mxGeometry x="-0.1301" y="-1" relative="1" as="geometry">
            <mxPoint y="1" as="offset" />
          </mxGeometry>
        </mxCell>
        <mxCell id="86wg8HdFibVKaGJC5Y2k-39" value="" style="endArrow=open;endSize=12;dashed=1;html=1;rounded=0;exitX=0;exitY=0.5;exitDx=0;exitDy=0;entryX=1;entryY=1;entryDx=0;entryDy=0;" edge="1" parent="1" source="Gg4r0DaN0LE6ULb9wv_x-35" target="Gg4r0DaN0LE6ULb9wv_x-59">
          <mxGeometry width="160" relative="1" as="geometry">
            <mxPoint x="500" y="970" as="sourcePoint" />
            <mxPoint x="280" y="1035" as="targetPoint" />
          </mxGeometry>
        </mxCell>
        <mxCell id="86wg8HdFibVKaGJC5Y2k-40" value="&amp;lt;include&amp;gt;" style="edgeLabel;html=1;align=center;verticalAlign=middle;resizable=0;points=[];" vertex="1" connectable="0" parent="86wg8HdFibVKaGJC5Y2k-39">
          <mxGeometry x="-0.1301" y="-1" relative="1" as="geometry">
            <mxPoint y="1" as="offset" />
          </mxGeometry>
        </mxCell>
        <mxCell id="86wg8HdFibVKaGJC5Y2k-43" value="" style="endArrow=open;endSize=12;dashed=1;html=1;rounded=0;exitX=0;exitY=0.5;exitDx=0;exitDy=0;entryX=1;entryY=0.5;entryDx=0;entryDy=0;" edge="1" parent="1">
          <mxGeometry width="160" relative="1" as="geometry">
            <mxPoint x="850" y="460" as="sourcePoint" />
            <mxPoint x="740" y="510" as="targetPoint" />
          </mxGeometry>
        </mxCell>
        <mxCell id="86wg8HdFibVKaGJC5Y2k-44" value="&amp;lt;extend&amp;gt;" style="edgeLabel;html=1;align=center;verticalAlign=middle;resizable=0;points=[];" vertex="1" connectable="0" parent="86wg8HdFibVKaGJC5Y2k-43">
          <mxGeometry x="-0.1301" y="-1" relative="1" as="geometry">
            <mxPoint y="1" as="offset" />
          </mxGeometry>
        </mxCell>
      </root>
    </mxGraphModel>
  </diagram>
  <diagram id="wc3ZEN1yxOvuZnzG7YM4" name="명세서">
    <mxGraphModel dx="1098" dy="835" grid="1" gridSize="10" guides="1" tooltips="1" connect="1" arrows="1" fold="1" page="1" pageScale="1" pageWidth="827" pageHeight="1169" math="0" shadow="0">
      <root>
        <mxCell id="0" />
        <mxCell id="1" parent="0" />
      </root>
    </mxGraphModel>
  </diagram>
</mxfile>
